<svg width="46" height="46" fill="none" stroke="#C69049" stroke-linecap="round" stroke-linejoin="round" stroke-width="2.5" viewBox="0 0 24 24" xmlns="http://www.w3.org/2000/svg">
  <path d="m12.412 17.876 4.725 3c.61.385 1.36-.187 1.181-.89l-1.368-5.382a.815.815 0 0 1 .272-.825l4.237-3.534c.553-.46.272-1.388-.45-1.434l-5.531-.357a.779.779 0 0 1-.684-.506L12.73 2.754a.778.778 0 0 0-1.463 0l-2.06 5.194a.778.778 0 0 1-.684.506l-5.532.357c-.722.046-1.003.975-.45 1.434l4.238 3.534a.816.816 0 0 1 .272.825l-1.266 4.988c-.215.844.684 1.528 1.406 1.069l4.397-2.785a.768.768 0 0 1 .825 0v0Z"></path>
</svg>