<svg width="46" height="46" fill="#C69049" viewBox="0 0 24 24" xmlns="http://www.w3.org/2000/svg">
  <path d="M22.425 9.133a1.538 1.538 0 0 0-1.369-1.07l-5.531-.355a.047.047 0 0 1-.038-.029l-2.062-5.203a1.528 1.528 0 0 0-2.85 0L8.512 7.68a.047.047 0 0 1-.037.029l-5.531.356a1.538 1.538 0 0 0-1.37 1.069 1.575 1.575 0 0 0 .488 1.696L6.3 14.354a.075.075 0 0 1 .019.075l-1.266 4.978a1.744 1.744 0 0 0 .656 1.838 1.687 1.687 0 0 0 1.885.056l4.397-2.784h.018l4.735 2.99c.242.158.526.243.815.244.32-.004.63-.105.89-.29a1.557 1.557 0 0 0 .591-1.66l-1.359-5.372a.075.075 0 0 1 .019-.075l4.237-3.525a1.575 1.575 0 0 0 .488-1.696Zm-1.444.543-4.247 3.525a1.575 1.575 0 0 0-.506 1.594l1.36 5.372c.009.037.009.047 0 .056a.066.066 0 0 1-.029.028h-.018l-4.726-3a1.5 1.5 0 0 0-.815-.234V3c.01 0 .019 0 .028.028L14.1 8.233a1.538 1.538 0 0 0 1.322.975l5.54.356c.01 0 .02 0 .029.037.009.038 0 .066-.01.075Z"></path>
</svg>